# Blender v2.90.1 OBJ File: 'characterProject.blend'
# www.blender.org
mtllib rombo.mtl
o rightLeg_Cube
v 0.000000 2.000000 -0.500000
v 0.000000 -2.000000 -0.500000
v 0.000000 2.000000 0.500000
v 0.000000 -2.000000 0.500000
v -1.000000 2.000000 -0.500000
v -1.000000 -2.000000 -0.500000
v -1.000000 2.000000 0.500000
v -1.000000 -2.000000 0.500000
vt 0.625000 0.500000
vt 0.875000 0.500000
vt 0.875000 0.750000
vt 0.625000 0.750000
vt 0.375000 0.750000
vt 0.625000 1.000000
vt 0.375000 1.000000
vt 0.375000 0.000000
vt 0.625000 0.000000
vt 0.625000 0.250000
vt 0.375000 0.250000
vt 0.125000 0.500000
vt 0.375000 0.500000
vt 0.125000 0.750000
vn 0.0000 1.0000 0.0000
vn 0.0000 0.0000 1.0000
vn -1.0000 0.0000 0.0000
vn 0.0000 -1.0000 0.0000
vn 1.0000 0.0000 0.0000
vn 0.0000 0.0000 -1.0000
usemtl Material
s off
f 1/1/1 5/2/1 7/3/1 3/4/1
f 4/5/2 3/4/2 7/6/2 8/7/2
f 8/8/3 7/9/3 5/10/3 6/11/3
f 6/12/4 2/13/4 4/5/4 8/14/4
f 2/13/5 1/1/5 3/4/5 4/5/5
f 6/11/6 5/10/6 1/1/6 2/13/6
o head_Cube.002
v -0.999973 4.998783 1.000016
v -1.005737 6.998772 0.996688
v -0.999968 4.995455 -0.999981
v -1.005732 6.995444 -1.003309
v 1.000019 5.004547 1.000011
v 0.994255 7.004536 0.996683
v 1.000024 5.001219 -0.999986
v 0.994260 7.001208 -1.003314
vt 0.375000 0.000000
vt 0.625000 0.000000
vt 0.625000 0.250000
vt 0.375000 0.250000
vt 0.625000 0.500000
vt 0.375000 0.500000
vt 0.625000 0.750000
vt 0.375000 0.750000
vt 0.625000 1.000000
vt 0.375000 1.000000
vt 0.125000 0.500000
vt 0.125000 0.750000
vt 0.875000 0.500000
vt 0.875000 0.750000
vn -1.0000 -0.0029 0.0000
vn 0.0000 -0.0017 -1.0000
vn 1.0000 0.0029 -0.0000
vn -0.0000 0.0017 1.0000
vn 0.0029 -1.0000 0.0017
vn -0.0029 1.0000 -0.0017
usemtl None
s off
f 9/15/7 10/16/7 12/17/7 11/18/7
f 11/18/8 12/17/8 16/19/8 15/20/8
f 15/20/9 16/19/9 14/21/9 13/22/9
f 13/22/10 14/21/10 10/23/10 9/24/10
f 11/25/11 15/20/11 13/22/11 9/26/11
f 16/19/12 12/27/12 10/28/12 14/21/12
o leftLeg_Cube.003
v 1.004878 2.000000 -0.500000
v 1.004878 -2.000000 -0.500000
v 1.004878 2.000000 0.500000
v 1.004878 -2.000000 0.500000
v -0.004878 2.000000 -0.500000
v -0.004878 -2.000000 -0.500000
v -0.004878 2.000000 0.500000
v -0.004878 -2.000000 0.500000
vt 0.625000 0.500000
vt 0.875000 0.500000
vt 0.875000 0.750000
vt 0.625000 0.750000
vt 0.375000 0.750000
vt 0.625000 1.000000
vt 0.375000 1.000000
vt 0.375000 0.000000
vt 0.625000 0.000000
vt 0.625000 0.250000
vt 0.375000 0.250000
vt 0.125000 0.500000
vt 0.375000 0.500000
vt 0.125000 0.750000
vn 0.0000 1.0000 0.0000
vn 0.0000 0.0000 1.0000
vn -1.0000 0.0000 0.0000
vn 0.0000 -1.0000 0.0000
vn 1.0000 0.0000 0.0000
vn 0.0000 0.0000 -1.0000
usemtl Material.002
s off
f 17/29/13 21/30/13 23/31/13 19/32/13
f 20/33/14 19/32/14 23/34/14 24/35/14
f 24/36/15 23/37/15 21/38/15 22/39/15
f 22/40/16 18/41/16 20/33/16 24/42/16
f 18/41/17 17/29/17 19/32/17 20/33/17
f 22/39/18 21/38/18 17/29/18 18/41/18
o rightArm_Cube.004
v -0.995122 4.992264 -0.499803
v -0.995122 1.492683 -0.445643
v -0.995122 5.007738 0.500077
v -0.995122 1.508157 0.554237
v -2.004878 4.992264 -0.499803
v -2.004878 1.492683 -0.445643
v -2.004878 5.007738 0.500077
v -2.004878 1.508157 0.554237
vt 0.625000 0.500000
vt 0.875000 0.500000
vt 0.875000 0.750000
vt 0.625000 0.750000
vt 0.375000 0.750000
vt 0.625000 1.000000
vt 0.375000 1.000000
vt 0.375000 0.000000
vt 0.625000 0.000000
vt 0.625000 0.250000
vt 0.375000 0.250000
vt 0.125000 0.500000
vt 0.375000 0.500000
vt 0.125000 0.750000
vn 0.0000 0.9999 -0.0155
vn 0.0000 0.0155 0.9999
vn -1.0000 -0.0000 0.0000
vn 0.0000 -0.9999 0.0155
vn 1.0000 -0.0000 0.0000
vn 0.0000 -0.0155 -0.9999
usemtl Material.003
s off
f 25/43/19 29/44/19 31/45/19 27/46/19
f 28/47/20 27/46/20 31/48/20 32/49/20
f 32/50/21 31/51/21 29/52/21 30/53/21
f 30/54/22 26/55/22 28/47/22 32/56/22
f 26/55/23 25/43/23 27/46/23 28/47/23
f 30/53/24 29/52/24 25/43/24 26/55/24
o core_Cube.005
v -1.000000 1.800000 0.500000
v -1.000000 5.000000 0.500000
v -1.000000 1.800000 -0.500000
v -1.000000 5.000000 -0.500000
v 1.000000 1.800000 0.500000
v 1.000000 5.000000 0.500000
v 1.000000 1.800000 -0.500000
v 1.000000 5.000000 -0.500000
vt 0.375000 0.000000
vt 0.625000 0.000000
vt 0.625000 0.250000
vt 0.375000 0.250000
vt 0.625000 0.500000
vt 0.375000 0.500000
vt 0.625000 0.750000
vt 0.375000 0.750000
vt 0.625000 1.000000
vt 0.375000 1.000000
vt 0.125000 0.500000
vt 0.125000 0.750000
vt 0.875000 0.500000
vt 0.875000 0.750000
vn -1.0000 0.0000 0.0000
vn 0.0000 0.0000 -1.0000
vn 1.0000 0.0000 0.0000
vn 0.0000 0.0000 1.0000
vn 0.0000 -1.0000 0.0000
vn 0.0000 1.0000 0.0000
usemtl None
s off
f 33/57/25 34/58/25 36/59/25 35/60/25
f 35/60/26 36/59/26 40/61/26 39/62/26
f 39/62/27 40/61/27 38/63/27 37/64/27
f 37/64/28 38/63/28 34/65/28 33/66/28
f 35/67/29 39/62/29 37/64/29 33/68/29
f 40/61/30 36/69/30 34/70/30 38/63/30
o leftArm_Cube.006
v 2.004878 5.007738 -0.500077
v 2.004878 1.508157 -0.554237
v 2.004878 4.992264 0.499803
v 2.004878 1.492683 0.445643
v 0.995122 5.007738 -0.500077
v 0.995122 1.508157 -0.554237
v 0.995122 4.992264 0.499803
v 0.995122 1.492683 0.445643
vt 0.625000 0.500000
vt 0.875000 0.500000
vt 0.875000 0.750000
vt 0.625000 0.750000
vt 0.375000 0.750000
vt 0.625000 1.000000
vt 0.375000 1.000000
vt 0.375000 0.000000
vt 0.625000 0.000000
vt 0.625000 0.250000
vt 0.375000 0.250000
vt 0.125000 0.500000
vt 0.375000 0.500000
vt 0.125000 0.750000
vn 0.0000 0.9999 0.0155
vn 0.0000 -0.0155 0.9999
vn -1.0000 -0.0000 0.0000
vn 0.0000 -0.9999 -0.0155
vn 1.0000 -0.0000 0.0000
vn 0.0000 0.0155 -0.9999
usemtl Material.004
s off
f 41/71/31 45/72/31 47/73/31 43/74/31
f 44/75/32 43/74/32 47/76/32 48/77/32
f 48/78/33 47/79/33 45/80/33 46/81/33
f 46/82/34 42/83/34 44/75/34 48/84/34
f 42/83/35 41/71/35 43/74/35 44/75/35
f 46/81/36 45/80/36 41/71/36 42/83/36
o Cube_Cube.007
v -1.000000 0.000000 1.500000
v -1.000000 1.500000 0.000000
v -1.000000 -1.500000 0.000000
v -1.000000 0.000000 -1.500000
v 1.000000 0.000000 1.500000
v 1.000000 1.500000 0.000000
v 1.000000 -1.500000 0.000000
v 1.000000 0.000000 -1.500000
vt 0.375000 0.000000
vt 0.625000 0.000000
vt 0.625000 0.250000
vt 0.375000 0.250000
vt 0.625000 0.500000
vt 0.375000 0.500000
vt 0.625000 0.750000
vt 0.375000 0.750000
vt 0.625000 1.000000
vt 0.375000 1.000000
vt 0.125000 0.500000
vt 0.125000 0.750000
vt 0.875000 0.500000
vt 0.875000 0.750000
vn -1.0000 0.0000 0.0000
vn 0.0000 -0.7071 -0.7071
vn 1.0000 0.0000 0.0000
vn 0.0000 0.7071 0.7071
vn 0.0000 -0.7071 0.7071
vn 0.0000 0.7071 -0.7071
usemtl None
s off
f 49/85/37 50/86/37 52/87/37 51/88/37
f 51/88/38 52/87/38 56/89/38 55/90/38
f 55/90/39 56/89/39 54/91/39 53/92/39
f 53/92/40 54/91/40 50/93/40 49/94/40
f 51/95/41 55/90/41 53/92/41 49/96/41
f 56/89/42 52/97/42 50/98/42 54/91/42
